<svg width="38" height="36" viewBox="0 0 38 36" fill="none" xmlns="http://www.w3.org/2000/svg">
<path d="M21.5 18C21.5 16.6193 20.3807 15.5 19 15.5C17.6193 15.5 16.5 16.6193 16.5 18H19H21.5ZM17.2322 20.7678C18.2085 21.7441 19.7915 21.7441 20.7678 20.7678L36.6777 4.85786C37.654 3.88155 37.654 2.29864 36.6777 1.32233C35.7014 0.34602 34.1184 0.34602 33.1421 1.32233L19 15.4645L4.85786 1.32233C3.88155 0.34602 2.29864 0.34602 1.32233 1.32233C0.34602 2.29864 0.34602 3.88155 1.32233 4.85786L17.2322 20.7678ZM19 18H16.5V19H19H21.5V18H19Z" fill="#F4D35E"/>
<path d="M21.5 32C21.5 30.6193 20.3807 29.5 19 29.5C17.6193 29.5 16.5 30.6193 16.5 32H19H21.5ZM17.2322 34.7678C18.2085 35.7441 19.7915 35.7441 20.7678 34.7678L36.6777 18.8579C37.654 17.8816 37.654 16.2986 36.6777 15.3223C35.7014 14.346 34.1184 14.346 33.1421 15.3223L19 29.4645L4.85786 15.3223C3.88155 14.346 2.29864 14.346 1.32233 15.3223C0.34602 16.2986 0.34602 17.8816 1.32233 18.8579L17.2322 34.7678ZM19 32H16.5V33H19H21.5V32H19Z" fill="#F4D35E"/>
</svg>
