<svg width="300" height="400" viewBox="0 0 300 400" fill="none" xmlns="http://www.w3.org/2000/svg">
<rect width="300" height="400" rx="20" fill="white"/>
<path opacity="0.4" d="M150.754 204.875C150.316 204.813 149.754 204.813 149.254 204.875C138.254 204.5 129.504 195.5 129.504 184.438C129.504 173.125 138.629 163.938 150.004 163.938C161.316 163.938 170.504 173.125 170.504 184.438C170.441 195.5 161.754 204.5 150.754 204.875Z" stroke="#292D32" stroke-width="12" stroke-linecap="round" stroke-linejoin="round"/>
<path opacity="0.34" d="M192.124 246.125C180.999 256.313 166.249 262.5 149.999 262.5C133.749 262.5 118.999 256.313 107.874 246.125C108.499 240.25 112.249 234.5 118.937 230C136.062 218.625 164.062 218.625 181.062 230C187.749 234.5 191.499 240.25 192.124 246.125Z" stroke="#292D32" stroke-width="12" stroke-linecap="round" stroke-linejoin="round"/>
<path d="M150 262.5C184.517 262.5 212.5 234.517 212.5 200C212.5 165.482 184.517 137.5 150 137.5C115.482 137.5 87.5 165.482 87.5 200C87.5 234.517 115.482 262.5 150 262.5Z" stroke="#292D32" stroke-width="12" stroke-linecap="round" stroke-linejoin="round"/>
</svg>
